%
M48
M72
T01C0.0315
T02C0.0360
T03C0.0400
%
T01
X11344Y9457
X10557Y9457
X9769Y9457
X8982Y9457
X8195Y9457
X8195Y10245
X8982Y10245
X9769Y10245
X10557Y10245
X11344Y10245
X10163Y19536
X10163Y20324
X9376Y20324
X9376Y19536
X9626Y25564
X10413Y25564
X11200Y25564
X8838Y25564
T02
X13819Y4591
X12819Y4591
T03
X11819Y4591
X10819Y4591
X9819Y4591
X8819Y4591
X7819Y4591
M30
