G75*
%MOIN*%
%OFA0B0*%
%FSLAX25Y25*%
%IPPOS*%
%LPD*%
%AMOC8*
5,1,8,0,0,1.08239X$1,22.5*
%
%ADD10C,0.02400*%
%ADD11C,0.05150*%
%ADD12R,0.05150X0.05150*%
%ADD13C,0.05600*%
%ADD14OC8,0.08500*%
%ADD15C,0.01181*%
%ADD16C,0.04724*%
%ADD17C,0.01600*%
D10*
X0024406Y0031228D02*
X0175981Y0031228D01*
X0175981Y0267449D01*
X0024406Y0267449D01*
X0024406Y0031228D01*
D11*
X0081946Y0094575D03*
X0089820Y0094575D03*
X0097694Y0094575D03*
X0105568Y0094575D03*
X0113442Y0094575D03*
X0113442Y0102449D03*
X0105568Y0102449D03*
X0097694Y0102449D03*
X0089820Y0102449D03*
X0081946Y0102449D03*
X0093757Y0195362D03*
X0093757Y0203236D03*
X0101631Y0203236D03*
X0101631Y0195362D03*
X0104131Y0255638D03*
X0112005Y0255638D03*
X0096257Y0255638D03*
D12*
X0088383Y0255638D03*
D13*
X0128186Y0048713D02*
X0128186Y0043113D01*
X0138186Y0043113D02*
X0138186Y0048713D01*
D14*
X0118186Y0045913D03*
X0108186Y0045913D03*
X0098186Y0045913D03*
X0088186Y0045913D03*
X0078186Y0045913D03*
D15*
X0078048Y0046130D01*
X0077516Y0046661D01*
X0077516Y0104063D01*
X0080174Y0106720D01*
X0083894Y0106720D01*
X0088146Y0102469D01*
X0089741Y0102469D01*
X0089820Y0102449D01*
X0082300Y0094496D02*
X0081946Y0094575D01*
X0082300Y0094496D02*
X0082300Y0051976D01*
X0088146Y0046130D01*
X0088186Y0045913D01*
X0097713Y0046130D02*
X0098186Y0045913D01*
X0097713Y0046130D02*
X0097713Y0094496D01*
X0097694Y0094575D01*
X0105568Y0094575D02*
X0105686Y0094496D01*
X0109938Y0090244D01*
X0115253Y0090244D01*
X0117910Y0092902D01*
X0117910Y0104063D01*
X0089209Y0132764D01*
X0089209Y0204516D01*
X0096119Y0211425D01*
X0096119Y0255539D01*
X0096257Y0255638D01*
X0088383Y0255638D02*
X0088146Y0255539D01*
X0088146Y0206642D01*
X0087083Y0205579D01*
X0087083Y0120539D01*
X0105154Y0102469D01*
X0105568Y0102449D01*
D16*
X0122162Y0091307D02*
X0122162Y0174220D01*
X0103028Y0193354D01*
X0101631Y0195362D01*
X0101965Y0195480D01*
X0101965Y0202921D01*
X0101631Y0203236D01*
X0102497Y0205579D01*
X0104091Y0207173D01*
X0104091Y0255539D01*
X0104131Y0255638D01*
X0122162Y0091307D02*
X0108343Y0077488D01*
X0108343Y0046130D01*
X0108186Y0045913D01*
X0118186Y0045913D02*
X0118442Y0046130D01*
X0128009Y0046130D01*
X0128186Y0045913D01*
D17*
X0123082Y0040884D02*
X0123465Y0039959D01*
X0125031Y0038393D01*
X0127078Y0037545D01*
X0129293Y0037545D01*
X0131340Y0038393D01*
X0132906Y0039959D01*
X0133186Y0040633D01*
X0133465Y0039959D01*
X0135031Y0038393D01*
X0137078Y0037545D01*
X0139293Y0037545D01*
X0141340Y0038393D01*
X0142906Y0039959D01*
X0143754Y0042006D01*
X0143754Y0049821D01*
X0142906Y0051868D01*
X0141340Y0053434D01*
X0139293Y0054282D01*
X0137078Y0054282D01*
X0135031Y0053434D01*
X0133465Y0051868D01*
X0133186Y0051193D01*
X0132906Y0051868D01*
X0131340Y0053434D01*
X0129293Y0054282D01*
X0127078Y0054282D01*
X0125031Y0053434D01*
X0123465Y0051868D01*
X0123213Y0051261D01*
X0122764Y0051261D01*
X0121093Y0052932D01*
X0115279Y0052932D01*
X0112501Y0050154D01*
X0110692Y0051963D01*
X0108386Y0051963D01*
X0108386Y0046113D01*
X0107986Y0046113D01*
X0107986Y0051963D01*
X0105680Y0051963D01*
X0103871Y0050154D01*
X0101093Y0052932D01*
X0101072Y0052932D01*
X0101072Y0090397D01*
X0101631Y0090955D01*
X0102541Y0090045D01*
X0104505Y0089231D01*
X0106200Y0089231D01*
X0108035Y0087396D01*
X0109269Y0086885D01*
X0115921Y0086885D01*
X0117155Y0087396D01*
X0118100Y0088341D01*
X0120758Y0090999D01*
X0121269Y0092233D01*
X0121269Y0104731D01*
X0120758Y0105966D01*
X0119813Y0106911D01*
X0092568Y0134155D01*
X0092568Y0190071D01*
X0092694Y0190019D01*
X0094819Y0190019D01*
X0096783Y0190832D01*
X0098286Y0192335D01*
X0098340Y0192466D01*
X0098781Y0192025D01*
X0099338Y0191621D01*
X0099951Y0191308D01*
X0100606Y0191095D01*
X0101286Y0190987D01*
X0101630Y0190987D01*
X0101630Y0195362D01*
X0101631Y0195362D01*
X0101631Y0195362D01*
X0106005Y0195362D01*
X0106005Y0195018D01*
X0105898Y0194338D01*
X0105685Y0193683D01*
X0105372Y0193069D01*
X0104967Y0192512D01*
X0104481Y0192025D01*
X0103923Y0191621D01*
X0103310Y0191308D01*
X0102655Y0191095D01*
X0101975Y0190987D01*
X0101631Y0190987D01*
X0101631Y0195362D01*
X0106005Y0195362D01*
X0106005Y0195707D01*
X0105898Y0196387D01*
X0105685Y0197042D01*
X0105372Y0197655D01*
X0104967Y0198212D01*
X0104481Y0198699D01*
X0103923Y0199104D01*
X0103540Y0199299D01*
X0103923Y0199495D01*
X0104481Y0199899D01*
X0104967Y0200386D01*
X0105372Y0200943D01*
X0105685Y0201557D01*
X0105898Y0202212D01*
X0106005Y0202892D01*
X0106005Y0203236D01*
X0101631Y0203236D01*
X0101631Y0203236D01*
X0101631Y0195362D01*
X0101630Y0195362D01*
X0101630Y0199737D01*
X0101630Y0203236D01*
X0101631Y0203236D01*
X0106005Y0203236D01*
X0106005Y0203581D01*
X0105898Y0204261D01*
X0105685Y0204916D01*
X0105372Y0205529D01*
X0104967Y0206086D01*
X0104481Y0206573D01*
X0103923Y0206978D01*
X0103310Y0207291D01*
X0102655Y0207503D01*
X0101975Y0207611D01*
X0101631Y0207611D01*
X0101631Y0203236D01*
X0101630Y0203236D01*
X0101630Y0207611D01*
X0101286Y0207611D01*
X0100606Y0207503D01*
X0099951Y0207291D01*
X0099338Y0206978D01*
X0098781Y0206573D01*
X0098340Y0206133D01*
X0098286Y0206263D01*
X0096997Y0207553D01*
X0098966Y0209522D01*
X0099478Y0210757D01*
X0099478Y0251302D01*
X0100786Y0252611D01*
X0100840Y0252741D01*
X0101281Y0252301D01*
X0101838Y0251896D01*
X0102451Y0251584D01*
X0103106Y0251371D01*
X0103786Y0251263D01*
X0104130Y0251263D01*
X0104130Y0255638D01*
X0104130Y0260013D01*
X0103786Y0260013D01*
X0103106Y0259905D01*
X0102451Y0259692D01*
X0101838Y0259379D01*
X0101281Y0258975D01*
X0100840Y0258534D01*
X0100786Y0258665D01*
X0099283Y0260168D01*
X0097319Y0260981D01*
X0095194Y0260981D01*
X0093230Y0260168D01*
X0093074Y0260011D01*
X0092526Y0260560D01*
X0091508Y0260981D01*
X0085257Y0260981D01*
X0084240Y0260560D01*
X0083461Y0259781D01*
X0083039Y0258763D01*
X0083039Y0252512D01*
X0083461Y0251495D01*
X0084240Y0250716D01*
X0084787Y0250489D01*
X0084787Y0208033D01*
X0084236Y0207481D01*
X0083724Y0206247D01*
X0083724Y0119871D01*
X0084236Y0118637D01*
X0095534Y0107338D01*
X0094667Y0106979D01*
X0093757Y0106068D01*
X0092846Y0106979D01*
X0090882Y0107792D01*
X0088757Y0107792D01*
X0087920Y0107445D01*
X0086742Y0108623D01*
X0085797Y0109568D01*
X0084563Y0110080D01*
X0079506Y0110080D01*
X0078271Y0109568D01*
X0075614Y0106911D01*
X0074669Y0105966D01*
X0074157Y0104731D01*
X0074157Y0051811D01*
X0071167Y0048821D01*
X0071167Y0043006D01*
X0075279Y0038895D01*
X0081093Y0038895D01*
X0083186Y0040988D01*
X0085279Y0038895D01*
X0091093Y0038895D01*
X0093186Y0040988D01*
X0095279Y0038895D01*
X0101093Y0038895D01*
X0103871Y0041673D01*
X0105680Y0039863D01*
X0107986Y0039863D01*
X0107986Y0045713D01*
X0108386Y0045713D01*
X0108386Y0039863D01*
X0110692Y0039863D01*
X0112501Y0041673D01*
X0115279Y0038895D01*
X0121093Y0038895D01*
X0123082Y0040884D01*
X0123700Y0039724D02*
X0121922Y0039724D01*
X0125677Y0038125D02*
X0051667Y0038125D01*
X0051543Y0037869D02*
X0053634Y0042211D01*
X0053634Y0042211D01*
X0054353Y0046976D01*
X0054056Y0048945D01*
X0054353Y0050913D01*
X0073260Y0050913D01*
X0074157Y0052512D02*
X0054112Y0052512D01*
X0054056Y0052882D02*
X0054353Y0054850D01*
X0053634Y0059616D01*
X0051543Y0063958D01*
X0048266Y0067490D01*
X0048266Y0067490D01*
X0044092Y0069900D01*
X0039394Y0070972D01*
X0034588Y0070612D01*
X0030102Y0068851D01*
X0028375Y0067474D01*
X0028375Y0229235D01*
X0030102Y0227857D01*
X0030102Y0227857D01*
X0034588Y0226097D01*
X0034588Y0226097D01*
X0039394Y0225737D01*
X0044092Y0226809D01*
X0048266Y0229218D01*
X0048266Y0229218D01*
X0051543Y0232751D01*
X0053634Y0237093D01*
X0053634Y0237093D01*
X0054353Y0241858D01*
X0054056Y0243827D01*
X0054353Y0245795D01*
X0054056Y0247764D01*
X0054353Y0249732D01*
X0053634Y0254498D01*
X0051543Y0258839D01*
X0048266Y0262372D01*
X0046346Y0263480D01*
X0153801Y0263480D01*
X0150350Y0260729D01*
X0150350Y0260729D01*
X0147636Y0256747D01*
X0146215Y0252142D01*
X0146215Y0239449D01*
X0147636Y0234844D01*
X0150350Y0230862D01*
X0150350Y0230862D01*
X0150350Y0230862D01*
X0154118Y0227857D01*
X0158604Y0226097D01*
X0163410Y0225737D01*
X0168108Y0226809D01*
X0172012Y0229063D01*
X0172012Y0067645D01*
X0168108Y0069900D01*
X0163410Y0070972D01*
X0163410Y0070972D01*
X0158604Y0070612D01*
X0158604Y0070612D01*
X0154118Y0068851D01*
X0150350Y0065847D01*
X0150350Y0065847D01*
X0147636Y0061865D01*
X0146215Y0057260D01*
X0146215Y0044567D01*
X0147636Y0039962D01*
X0147636Y0039962D01*
X0150350Y0035980D01*
X0150350Y0035980D01*
X0150350Y0035980D01*
X0151332Y0035197D01*
X0049064Y0035197D01*
X0051543Y0037869D01*
X0051543Y0037869D01*
X0050298Y0036527D02*
X0149977Y0036527D01*
X0148888Y0038125D02*
X0140695Y0038125D01*
X0142671Y0039724D02*
X0147798Y0039724D01*
X0147216Y0041322D02*
X0143471Y0041322D01*
X0143754Y0042921D02*
X0146723Y0042921D01*
X0146230Y0044519D02*
X0143754Y0044519D01*
X0143754Y0046118D02*
X0146215Y0046118D01*
X0146215Y0047716D02*
X0143754Y0047716D01*
X0143754Y0049315D02*
X0146215Y0049315D01*
X0146215Y0050913D02*
X0143302Y0050913D01*
X0142262Y0052512D02*
X0146215Y0052512D01*
X0146215Y0054110D02*
X0139707Y0054110D01*
X0136664Y0054110D02*
X0129707Y0054110D01*
X0132262Y0052512D02*
X0134109Y0052512D01*
X0126664Y0054110D02*
X0101072Y0054110D01*
X0101072Y0055709D02*
X0146215Y0055709D01*
X0146230Y0057307D02*
X0101072Y0057307D01*
X0101072Y0058906D02*
X0146723Y0058906D01*
X0147216Y0060504D02*
X0101072Y0060504D01*
X0101072Y0062103D02*
X0147798Y0062103D01*
X0147636Y0061865D02*
X0147636Y0061865D01*
X0148888Y0063701D02*
X0101072Y0063701D01*
X0101072Y0065300D02*
X0149978Y0065300D01*
X0151669Y0066898D02*
X0101072Y0066898D01*
X0101072Y0068497D02*
X0153674Y0068497D01*
X0154118Y0068851D02*
X0154118Y0068851D01*
X0157288Y0070096D02*
X0101072Y0070096D01*
X0101072Y0071694D02*
X0172012Y0071694D01*
X0172012Y0070096D02*
X0167250Y0070096D01*
X0168108Y0069900D02*
X0168108Y0069900D01*
X0170537Y0068497D02*
X0172012Y0068497D01*
X0172012Y0073293D02*
X0101072Y0073293D01*
X0101072Y0074891D02*
X0172012Y0074891D01*
X0172012Y0076490D02*
X0101072Y0076490D01*
X0101072Y0078088D02*
X0172012Y0078088D01*
X0172012Y0079687D02*
X0101072Y0079687D01*
X0101072Y0081285D02*
X0172012Y0081285D01*
X0172012Y0082884D02*
X0101072Y0082884D01*
X0101072Y0084482D02*
X0172012Y0084482D01*
X0172012Y0086081D02*
X0101072Y0086081D01*
X0101072Y0087679D02*
X0107752Y0087679D01*
X0104393Y0089278D02*
X0101072Y0089278D01*
X0101552Y0090876D02*
X0101710Y0090876D01*
X0094549Y0106861D02*
X0092964Y0106861D01*
X0094412Y0108460D02*
X0086905Y0108460D01*
X0084614Y0110058D02*
X0092814Y0110058D01*
X0091215Y0111657D02*
X0028375Y0111657D01*
X0028375Y0113255D02*
X0089617Y0113255D01*
X0088018Y0114854D02*
X0028375Y0114854D01*
X0028375Y0116452D02*
X0086420Y0116452D01*
X0084821Y0118051D02*
X0028375Y0118051D01*
X0028375Y0119649D02*
X0083816Y0119649D01*
X0083724Y0121248D02*
X0028375Y0121248D01*
X0028375Y0122846D02*
X0083724Y0122846D01*
X0083724Y0124445D02*
X0028375Y0124445D01*
X0028375Y0126043D02*
X0083724Y0126043D01*
X0083724Y0127642D02*
X0028375Y0127642D01*
X0028375Y0129240D02*
X0083724Y0129240D01*
X0083724Y0130839D02*
X0028375Y0130839D01*
X0028375Y0132437D02*
X0083724Y0132437D01*
X0083724Y0134036D02*
X0028375Y0134036D01*
X0028375Y0135634D02*
X0083724Y0135634D01*
X0083724Y0137233D02*
X0028375Y0137233D01*
X0028375Y0138832D02*
X0083724Y0138832D01*
X0083724Y0140430D02*
X0028375Y0140430D01*
X0028375Y0142029D02*
X0083724Y0142029D01*
X0083724Y0143627D02*
X0028375Y0143627D01*
X0028375Y0145226D02*
X0083724Y0145226D01*
X0083724Y0146824D02*
X0028375Y0146824D01*
X0028375Y0148423D02*
X0083724Y0148423D01*
X0083724Y0150021D02*
X0028375Y0150021D01*
X0028375Y0151620D02*
X0083724Y0151620D01*
X0083724Y0153218D02*
X0028375Y0153218D01*
X0028375Y0154817D02*
X0083724Y0154817D01*
X0083724Y0156415D02*
X0028375Y0156415D01*
X0028375Y0158014D02*
X0083724Y0158014D01*
X0083724Y0159612D02*
X0028375Y0159612D01*
X0028375Y0161211D02*
X0083724Y0161211D01*
X0083724Y0162809D02*
X0028375Y0162809D01*
X0028375Y0164408D02*
X0083724Y0164408D01*
X0083724Y0166006D02*
X0028375Y0166006D01*
X0028375Y0167605D02*
X0083724Y0167605D01*
X0083724Y0169203D02*
X0028375Y0169203D01*
X0028375Y0170802D02*
X0083724Y0170802D01*
X0083724Y0172400D02*
X0028375Y0172400D01*
X0028375Y0173999D02*
X0083724Y0173999D01*
X0083724Y0175597D02*
X0028375Y0175597D01*
X0028375Y0177196D02*
X0083724Y0177196D01*
X0083724Y0178794D02*
X0028375Y0178794D01*
X0028375Y0180393D02*
X0083724Y0180393D01*
X0083724Y0181991D02*
X0028375Y0181991D01*
X0028375Y0183590D02*
X0083724Y0183590D01*
X0083724Y0185188D02*
X0028375Y0185188D01*
X0028375Y0186787D02*
X0083724Y0186787D01*
X0083724Y0188385D02*
X0028375Y0188385D01*
X0028375Y0189984D02*
X0083724Y0189984D01*
X0083724Y0191582D02*
X0028375Y0191582D01*
X0028375Y0193181D02*
X0083724Y0193181D01*
X0083724Y0194779D02*
X0028375Y0194779D01*
X0028375Y0196378D02*
X0083724Y0196378D01*
X0083724Y0197976D02*
X0028375Y0197976D01*
X0028375Y0199575D02*
X0083724Y0199575D01*
X0083724Y0201173D02*
X0028375Y0201173D01*
X0028375Y0202772D02*
X0083724Y0202772D01*
X0083724Y0204370D02*
X0028375Y0204370D01*
X0028375Y0205969D02*
X0083724Y0205969D01*
X0084322Y0207567D02*
X0028375Y0207567D01*
X0028375Y0209166D02*
X0084787Y0209166D01*
X0084787Y0210765D02*
X0028375Y0210765D01*
X0028375Y0212363D02*
X0084787Y0212363D01*
X0084787Y0213962D02*
X0028375Y0213962D01*
X0028375Y0215560D02*
X0084787Y0215560D01*
X0084787Y0217159D02*
X0028375Y0217159D01*
X0028375Y0218757D02*
X0084787Y0218757D01*
X0084787Y0220356D02*
X0028375Y0220356D01*
X0028375Y0221954D02*
X0084787Y0221954D01*
X0084787Y0223553D02*
X0028375Y0223553D01*
X0028375Y0225151D02*
X0084787Y0225151D01*
X0084787Y0226750D02*
X0043832Y0226750D01*
X0046758Y0228348D02*
X0084787Y0228348D01*
X0084787Y0229947D02*
X0048941Y0229947D01*
X0050424Y0231545D02*
X0084787Y0231545D01*
X0084787Y0233144D02*
X0051732Y0233144D01*
X0052502Y0234742D02*
X0084787Y0234742D01*
X0084787Y0236341D02*
X0053272Y0236341D01*
X0053762Y0237939D02*
X0084787Y0237939D01*
X0084787Y0239538D02*
X0054003Y0239538D01*
X0054244Y0241136D02*
X0084787Y0241136D01*
X0084787Y0242735D02*
X0054221Y0242735D01*
X0054132Y0244333D02*
X0084787Y0244333D01*
X0084787Y0245932D02*
X0054332Y0245932D01*
X0054353Y0245795D02*
X0054353Y0245795D01*
X0054091Y0247530D02*
X0084787Y0247530D01*
X0084787Y0249129D02*
X0054262Y0249129D01*
X0054203Y0250727D02*
X0084228Y0250727D01*
X0083116Y0252326D02*
X0053962Y0252326D01*
X0053721Y0253924D02*
X0083039Y0253924D01*
X0083039Y0255523D02*
X0053141Y0255523D01*
X0053634Y0254498D02*
X0053634Y0254498D01*
X0052371Y0257121D02*
X0083039Y0257121D01*
X0083039Y0258720D02*
X0051601Y0258720D01*
X0051543Y0258839D02*
X0051543Y0258839D01*
X0050171Y0260318D02*
X0083998Y0260318D01*
X0092767Y0260318D02*
X0093594Y0260318D01*
X0098919Y0260318D02*
X0109342Y0260318D01*
X0108978Y0260168D02*
X0107475Y0258665D01*
X0107421Y0258534D01*
X0106981Y0258975D01*
X0106423Y0259379D01*
X0105810Y0259692D01*
X0105155Y0259905D01*
X0104475Y0260013D01*
X0104131Y0260013D01*
X0104131Y0255638D01*
X0104130Y0255638D01*
X0104131Y0255638D01*
X0104131Y0251263D01*
X0104475Y0251263D01*
X0105155Y0251371D01*
X0105810Y0251584D01*
X0106423Y0251896D01*
X0106981Y0252301D01*
X0107421Y0252741D01*
X0107475Y0252611D01*
X0108978Y0251108D01*
X0110942Y0250294D01*
X0113067Y0250294D01*
X0115031Y0251108D01*
X0116534Y0252611D01*
X0117348Y0254575D01*
X0117348Y0256701D01*
X0116534Y0258665D01*
X0115031Y0260168D01*
X0113067Y0260981D01*
X0110942Y0260981D01*
X0108978Y0260168D01*
X0107530Y0258720D02*
X0107235Y0258720D01*
X0104131Y0258720D02*
X0104130Y0258720D01*
X0104130Y0257121D02*
X0104131Y0257121D01*
X0104130Y0255523D02*
X0104131Y0255523D01*
X0104130Y0253924D02*
X0104131Y0253924D01*
X0104130Y0252326D02*
X0104131Y0252326D01*
X0107005Y0252326D02*
X0107760Y0252326D01*
X0109897Y0250727D02*
X0099478Y0250727D01*
X0099478Y0249129D02*
X0146215Y0249129D01*
X0146215Y0250727D02*
X0114112Y0250727D01*
X0116249Y0252326D02*
X0146272Y0252326D01*
X0146765Y0253924D02*
X0117078Y0253924D01*
X0117348Y0255523D02*
X0147258Y0255523D01*
X0147891Y0257121D02*
X0117174Y0257121D01*
X0116479Y0258720D02*
X0148981Y0258720D01*
X0150071Y0260318D02*
X0114667Y0260318D01*
X0101026Y0258720D02*
X0100731Y0258720D01*
X0100501Y0252326D02*
X0101256Y0252326D01*
X0099478Y0247530D02*
X0146215Y0247530D01*
X0146215Y0245932D02*
X0099478Y0245932D01*
X0099478Y0244333D02*
X0146215Y0244333D01*
X0146215Y0242735D02*
X0099478Y0242735D01*
X0099478Y0241136D02*
X0146215Y0241136D01*
X0146215Y0239538D02*
X0099478Y0239538D01*
X0099478Y0237939D02*
X0146681Y0237939D01*
X0147174Y0236341D02*
X0099478Y0236341D01*
X0099478Y0234742D02*
X0147705Y0234742D01*
X0147636Y0234844D02*
X0147636Y0234844D01*
X0148795Y0233144D02*
X0099478Y0233144D01*
X0099478Y0231545D02*
X0149884Y0231545D01*
X0151498Y0229947D02*
X0099478Y0229947D01*
X0099478Y0228348D02*
X0153502Y0228348D01*
X0154118Y0227857D02*
X0154118Y0227857D01*
X0156940Y0226750D02*
X0099478Y0226750D01*
X0099478Y0225151D02*
X0172012Y0225151D01*
X0172012Y0223553D02*
X0099478Y0223553D01*
X0099478Y0221954D02*
X0172012Y0221954D01*
X0172012Y0220356D02*
X0099478Y0220356D01*
X0099478Y0218757D02*
X0172012Y0218757D01*
X0172012Y0217159D02*
X0099478Y0217159D01*
X0099478Y0215560D02*
X0172012Y0215560D01*
X0172012Y0213962D02*
X0099478Y0213962D01*
X0099478Y0212363D02*
X0172012Y0212363D01*
X0172012Y0210765D02*
X0099478Y0210765D01*
X0098610Y0209166D02*
X0172012Y0209166D01*
X0172012Y0207567D02*
X0102250Y0207567D01*
X0101631Y0207567D02*
X0101630Y0207567D01*
X0101012Y0207567D02*
X0097011Y0207567D01*
X0101630Y0205969D02*
X0101631Y0205969D01*
X0101630Y0204370D02*
X0101631Y0204370D01*
X0101630Y0202772D02*
X0101631Y0202772D01*
X0101630Y0201173D02*
X0101631Y0201173D01*
X0101630Y0199575D02*
X0101631Y0199575D01*
X0101630Y0197976D02*
X0101631Y0197976D01*
X0101630Y0196378D02*
X0101631Y0196378D01*
X0101630Y0194779D02*
X0101631Y0194779D01*
X0101630Y0193181D02*
X0101631Y0193181D01*
X0101630Y0191582D02*
X0101631Y0191582D01*
X0103849Y0191582D02*
X0172012Y0191582D01*
X0172012Y0189984D02*
X0092568Y0189984D01*
X0092568Y0188385D02*
X0172012Y0188385D01*
X0172012Y0186787D02*
X0092568Y0186787D01*
X0092568Y0185188D02*
X0172012Y0185188D01*
X0172012Y0183590D02*
X0092568Y0183590D01*
X0092568Y0181991D02*
X0172012Y0181991D01*
X0172012Y0180393D02*
X0092568Y0180393D01*
X0092568Y0178794D02*
X0172012Y0178794D01*
X0172012Y0177196D02*
X0092568Y0177196D01*
X0092568Y0175597D02*
X0172012Y0175597D01*
X0172012Y0173999D02*
X0092568Y0173999D01*
X0092568Y0172400D02*
X0172012Y0172400D01*
X0172012Y0170802D02*
X0092568Y0170802D01*
X0092568Y0169203D02*
X0172012Y0169203D01*
X0172012Y0167605D02*
X0092568Y0167605D01*
X0092568Y0166006D02*
X0172012Y0166006D01*
X0172012Y0164408D02*
X0092568Y0164408D01*
X0092568Y0162809D02*
X0172012Y0162809D01*
X0172012Y0161211D02*
X0092568Y0161211D01*
X0092568Y0159612D02*
X0172012Y0159612D01*
X0172012Y0158014D02*
X0092568Y0158014D01*
X0092568Y0156415D02*
X0172012Y0156415D01*
X0172012Y0154817D02*
X0092568Y0154817D01*
X0092568Y0153218D02*
X0172012Y0153218D01*
X0172012Y0151620D02*
X0092568Y0151620D01*
X0092568Y0150021D02*
X0172012Y0150021D01*
X0172012Y0148423D02*
X0092568Y0148423D01*
X0092568Y0146824D02*
X0172012Y0146824D01*
X0172012Y0145226D02*
X0092568Y0145226D01*
X0092568Y0143627D02*
X0172012Y0143627D01*
X0172012Y0142029D02*
X0092568Y0142029D01*
X0092568Y0140430D02*
X0172012Y0140430D01*
X0172012Y0138832D02*
X0092568Y0138832D01*
X0092568Y0137233D02*
X0172012Y0137233D01*
X0172012Y0135634D02*
X0092568Y0135634D01*
X0092688Y0134036D02*
X0172012Y0134036D01*
X0172012Y0132437D02*
X0094286Y0132437D01*
X0095885Y0130839D02*
X0172012Y0130839D01*
X0172012Y0129240D02*
X0097483Y0129240D01*
X0099082Y0127642D02*
X0172012Y0127642D01*
X0172012Y0126043D02*
X0100680Y0126043D01*
X0102279Y0124445D02*
X0172012Y0124445D01*
X0172012Y0122846D02*
X0103877Y0122846D01*
X0105476Y0121248D02*
X0172012Y0121248D01*
X0172012Y0119649D02*
X0107074Y0119649D01*
X0108673Y0118051D02*
X0172012Y0118051D01*
X0172012Y0116452D02*
X0110271Y0116452D01*
X0111870Y0114854D02*
X0172012Y0114854D01*
X0172012Y0113255D02*
X0113468Y0113255D01*
X0115067Y0111657D02*
X0172012Y0111657D01*
X0172012Y0110058D02*
X0116665Y0110058D01*
X0118264Y0108460D02*
X0172012Y0108460D01*
X0172012Y0106861D02*
X0119862Y0106861D01*
X0121049Y0105263D02*
X0172012Y0105263D01*
X0172012Y0103664D02*
X0121269Y0103664D01*
X0121269Y0102066D02*
X0172012Y0102066D01*
X0172012Y0100467D02*
X0121269Y0100467D01*
X0121269Y0098869D02*
X0172012Y0098869D01*
X0172012Y0097270D02*
X0121269Y0097270D01*
X0121269Y0095672D02*
X0172012Y0095672D01*
X0172012Y0094073D02*
X0121269Y0094073D01*
X0121269Y0092475D02*
X0172012Y0092475D01*
X0172012Y0090876D02*
X0120635Y0090876D01*
X0119037Y0089278D02*
X0172012Y0089278D01*
X0172012Y0087679D02*
X0117438Y0087679D01*
X0114859Y0052512D02*
X0101513Y0052512D01*
X0103111Y0050913D02*
X0104630Y0050913D01*
X0107986Y0050913D02*
X0108386Y0050913D01*
X0108386Y0049315D02*
X0107986Y0049315D01*
X0107986Y0047716D02*
X0108386Y0047716D01*
X0108386Y0046118D02*
X0107986Y0046118D01*
X0107986Y0044519D02*
X0108386Y0044519D01*
X0108386Y0042921D02*
X0107986Y0042921D01*
X0107986Y0041322D02*
X0108386Y0041322D01*
X0104221Y0041322D02*
X0103520Y0041322D01*
X0101922Y0039724D02*
X0114450Y0039724D01*
X0112851Y0041322D02*
X0112151Y0041322D01*
X0111742Y0050913D02*
X0113260Y0050913D01*
X0121513Y0052512D02*
X0124109Y0052512D01*
X0132671Y0039724D02*
X0133700Y0039724D01*
X0135677Y0038125D02*
X0130695Y0038125D01*
X0094450Y0039724D02*
X0091922Y0039724D01*
X0084450Y0039724D02*
X0081922Y0039724D01*
X0074450Y0039724D02*
X0052437Y0039724D01*
X0053206Y0041322D02*
X0072851Y0041322D01*
X0071253Y0042921D02*
X0053741Y0042921D01*
X0053982Y0044519D02*
X0071167Y0044519D01*
X0071167Y0046118D02*
X0054223Y0046118D01*
X0054241Y0047716D02*
X0071167Y0047716D01*
X0071662Y0049315D02*
X0054112Y0049315D01*
X0054353Y0050913D02*
X0054056Y0052882D01*
X0054241Y0054110D02*
X0074157Y0054110D01*
X0074157Y0055709D02*
X0054223Y0055709D01*
X0053982Y0057307D02*
X0074157Y0057307D01*
X0074157Y0058906D02*
X0053741Y0058906D01*
X0053634Y0059616D02*
X0053634Y0059616D01*
X0053206Y0060504D02*
X0074157Y0060504D01*
X0074157Y0062103D02*
X0052437Y0062103D01*
X0051667Y0063701D02*
X0074157Y0063701D01*
X0074157Y0065300D02*
X0050298Y0065300D01*
X0051543Y0063958D02*
X0051543Y0063958D01*
X0048815Y0066898D02*
X0074157Y0066898D01*
X0074157Y0068497D02*
X0046522Y0068497D01*
X0044092Y0069900D02*
X0044092Y0069900D01*
X0043234Y0070096D02*
X0074157Y0070096D01*
X0074157Y0071694D02*
X0028375Y0071694D01*
X0028375Y0070096D02*
X0033272Y0070096D01*
X0034588Y0070612D02*
X0034588Y0070612D01*
X0039394Y0070972D02*
X0039394Y0070972D01*
X0030102Y0068851D02*
X0030102Y0068851D01*
X0029658Y0068497D02*
X0028375Y0068497D01*
X0028375Y0073293D02*
X0074157Y0073293D01*
X0074157Y0074891D02*
X0028375Y0074891D01*
X0028375Y0076490D02*
X0074157Y0076490D01*
X0074157Y0078088D02*
X0028375Y0078088D01*
X0028375Y0079687D02*
X0074157Y0079687D01*
X0074157Y0081285D02*
X0028375Y0081285D01*
X0028375Y0082884D02*
X0074157Y0082884D01*
X0074157Y0084482D02*
X0028375Y0084482D01*
X0028375Y0086081D02*
X0074157Y0086081D01*
X0074157Y0087679D02*
X0028375Y0087679D01*
X0028375Y0089278D02*
X0074157Y0089278D01*
X0074157Y0090876D02*
X0028375Y0090876D01*
X0028375Y0092475D02*
X0074157Y0092475D01*
X0074157Y0094073D02*
X0028375Y0094073D01*
X0028375Y0095672D02*
X0074157Y0095672D01*
X0074157Y0097270D02*
X0028375Y0097270D01*
X0028375Y0098869D02*
X0074157Y0098869D01*
X0074157Y0100467D02*
X0028375Y0100467D01*
X0028375Y0102066D02*
X0074157Y0102066D01*
X0074157Y0103664D02*
X0028375Y0103664D01*
X0028375Y0105263D02*
X0074378Y0105263D01*
X0075564Y0106861D02*
X0028375Y0106861D01*
X0028375Y0108460D02*
X0077163Y0108460D01*
X0079455Y0110058D02*
X0028375Y0110058D01*
X0097533Y0191582D02*
X0099413Y0191582D01*
X0105429Y0193181D02*
X0172012Y0193181D01*
X0172012Y0194779D02*
X0105968Y0194779D01*
X0105899Y0196378D02*
X0172012Y0196378D01*
X0172012Y0197976D02*
X0105139Y0197976D01*
X0104034Y0199575D02*
X0172012Y0199575D01*
X0172012Y0201173D02*
X0105489Y0201173D01*
X0105986Y0202772D02*
X0172012Y0202772D01*
X0172012Y0204370D02*
X0105862Y0204370D01*
X0105053Y0205969D02*
X0172012Y0205969D01*
X0163410Y0225737D02*
X0163410Y0225737D01*
X0167848Y0226750D02*
X0172012Y0226750D01*
X0172012Y0228348D02*
X0170774Y0228348D01*
X0168108Y0226809D02*
X0168108Y0226809D01*
X0158604Y0226097D02*
X0158604Y0226097D01*
X0151840Y0261917D02*
X0048688Y0261917D01*
X0032924Y0226750D02*
X0028375Y0226750D01*
X0028375Y0228348D02*
X0029487Y0228348D01*
X0039394Y0225737D02*
X0039394Y0225737D01*
M02*
