G75*
%MOIN*%
%OFA0B0*%
%FSLAX25Y25*%
%IPPOS*%
%LPD*%
%AMOC8*
5,1,8,0,0,1.08239X$1,22.5*
%
%ADD10C,0.02400*%
%ADD11C,0.05150*%
%ADD12R,0.05150X0.05150*%
%ADD13C,0.05600*%
%ADD14OC8,0.08500*%
%ADD15C,0.04724*%
%ADD16C,0.01600*%
%ADD17C,0.01181*%
D10*
X0024406Y0031228D02*
X0175981Y0031228D01*
X0175981Y0267449D01*
X0024406Y0267449D01*
X0024406Y0031228D01*
D11*
X0081946Y0094575D03*
X0089820Y0094575D03*
X0097694Y0094575D03*
X0105568Y0094575D03*
X0113442Y0094575D03*
X0113442Y0102449D03*
X0105568Y0102449D03*
X0097694Y0102449D03*
X0089820Y0102449D03*
X0081946Y0102449D03*
X0093757Y0195362D03*
X0093757Y0203236D03*
X0101631Y0203236D03*
X0101631Y0195362D03*
X0104131Y0255638D03*
X0112005Y0255638D03*
X0096257Y0255638D03*
D12*
X0088383Y0255638D03*
D13*
X0128186Y0048713D02*
X0128186Y0043113D01*
X0138186Y0043113D02*
X0138186Y0048713D01*
D14*
X0118186Y0045913D03*
X0108186Y0045913D03*
X0098186Y0045913D03*
X0088186Y0045913D03*
X0078186Y0045913D03*
D15*
X0079111Y0085461D02*
X0073264Y0091307D01*
X0073264Y0102469D01*
X0079642Y0108846D01*
X0097182Y0108846D01*
X0097182Y0102469D01*
X0097694Y0102449D01*
X0097182Y0108846D02*
X0097182Y0191228D01*
X0093461Y0194949D01*
X0093757Y0195362D01*
X0093993Y0197606D01*
X0093993Y0202921D01*
X0093757Y0203236D01*
X0095056Y0205047D01*
X0111532Y0221524D01*
X0111532Y0255539D01*
X0112005Y0255638D01*
X0079642Y0085461D02*
X0079111Y0085461D01*
X0079642Y0085461D02*
X0117910Y0047193D01*
X0117910Y0046130D01*
X0118186Y0045913D01*
D16*
X0118386Y0045713D02*
X0118386Y0039863D01*
X0120692Y0039863D01*
X0123586Y0042757D01*
X0123586Y0042751D01*
X0123699Y0042036D01*
X0123923Y0041348D01*
X0124251Y0040702D01*
X0124677Y0040117D01*
X0125189Y0039605D01*
X0125775Y0039179D01*
X0126420Y0038850D01*
X0127109Y0038627D01*
X0127824Y0038513D01*
X0128086Y0038513D01*
X0128086Y0045813D01*
X0128286Y0045813D01*
X0128286Y0038513D01*
X0128548Y0038513D01*
X0129263Y0038627D01*
X0129951Y0038850D01*
X0130597Y0039179D01*
X0131182Y0039605D01*
X0131394Y0039816D01*
X0131796Y0038844D01*
X0133475Y0037165D01*
X0112147Y0037165D01*
X0115262Y0040281D01*
X0115680Y0039863D01*
X0117986Y0039863D01*
X0117986Y0045713D01*
X0118386Y0045713D01*
X0118386Y0046113D01*
X0123586Y0046113D01*
X0123586Y0046013D01*
X0128086Y0046013D01*
X0128086Y0045813D01*
X0123586Y0045813D01*
X0123586Y0045713D01*
X0118386Y0045713D01*
X0118386Y0046113D02*
X0117986Y0046113D01*
X0117986Y0051963D01*
X0115680Y0051963D01*
X0115262Y0051546D01*
X0111908Y0054900D01*
X0104463Y0054900D01*
X0103186Y0053623D01*
X0101908Y0054900D01*
X0094463Y0054900D01*
X0093186Y0053623D01*
X0091908Y0054900D01*
X0084463Y0054900D01*
X0083186Y0053623D01*
X0081908Y0054900D01*
X0074463Y0054900D01*
X0069199Y0049636D01*
X0069199Y0042191D01*
X0074224Y0037165D01*
X0053437Y0037165D01*
X0053442Y0037172D01*
X0055587Y0041867D01*
X0056321Y0046976D01*
X0056038Y0048945D01*
X0056321Y0050913D01*
X0056038Y0052882D01*
X0056321Y0054850D01*
X0055587Y0059960D01*
X0053442Y0064655D01*
X0053442Y0064655D01*
X0050062Y0068556D01*
X0050062Y0068556D01*
X0045719Y0071347D01*
X0040767Y0072801D01*
X0035605Y0072801D01*
X0030652Y0071347D01*
X0030343Y0071148D01*
X0030343Y0225560D01*
X0030652Y0225362D01*
X0035605Y0223907D01*
X0040767Y0223907D01*
X0045719Y0225362D01*
X0045719Y0225362D01*
X0050062Y0228152D01*
X0050062Y0228152D01*
X0050062Y0228152D01*
X0053442Y0232054D01*
X0055587Y0236749D01*
X0056321Y0241858D01*
X0056038Y0243827D01*
X0056321Y0245795D01*
X0056038Y0247764D01*
X0056321Y0249732D01*
X0055587Y0254842D01*
X0053442Y0259537D01*
X0051731Y0261512D01*
X0082408Y0261512D01*
X0081792Y0260896D01*
X0081071Y0259155D01*
X0081071Y0252121D01*
X0081792Y0250380D01*
X0083124Y0249047D01*
X0084865Y0248326D01*
X0091900Y0248326D01*
X0093351Y0248927D01*
X0094802Y0248326D01*
X0097711Y0248326D01*
X0100194Y0249354D01*
X0102676Y0248326D01*
X0105585Y0248326D01*
X0108272Y0249439D01*
X0110329Y0251496D01*
X0110361Y0251572D01*
X0110980Y0251371D01*
X0111660Y0251263D01*
X0112005Y0251263D01*
X0112349Y0251263D01*
X0113029Y0251371D01*
X0113684Y0251584D01*
X0114297Y0251896D01*
X0114855Y0252301D01*
X0115341Y0252788D01*
X0115746Y0253345D01*
X0116059Y0253958D01*
X0116272Y0254613D01*
X0116379Y0255293D01*
X0116379Y0255638D01*
X0116379Y0255982D01*
X0116272Y0256662D01*
X0116059Y0257317D01*
X0115746Y0257931D01*
X0115341Y0258488D01*
X0114855Y0258975D01*
X0114297Y0259379D01*
X0113684Y0259692D01*
X0113029Y0259905D01*
X0112349Y0260013D01*
X0112005Y0260013D01*
X0112005Y0255638D01*
X0116379Y0255638D01*
X0112005Y0255638D01*
X0112005Y0255638D01*
X0112005Y0255638D01*
X0112005Y0260013D01*
X0111660Y0260013D01*
X0110980Y0259905D01*
X0110361Y0259704D01*
X0110329Y0259780D01*
X0108597Y0261512D01*
X0148656Y0261512D01*
X0146945Y0259537D01*
X0144801Y0254842D01*
X0144801Y0254842D01*
X0144066Y0249732D01*
X0144349Y0247764D01*
X0144066Y0245795D01*
X0144349Y0243827D01*
X0144066Y0241858D01*
X0144801Y0236749D01*
X0146945Y0232054D01*
X0146945Y0232054D01*
X0150325Y0228152D01*
X0154668Y0225362D01*
X0159620Y0223907D01*
X0164782Y0223907D01*
X0169735Y0225362D01*
X0170044Y0225560D01*
X0170044Y0071148D01*
X0169735Y0071347D01*
X0164782Y0072801D01*
X0159620Y0072801D01*
X0154668Y0071347D01*
X0154668Y0071347D01*
X0150325Y0068556D01*
X0146945Y0064655D01*
X0144801Y0059960D01*
X0144066Y0054850D01*
X0144294Y0053264D01*
X0142455Y0055103D01*
X0139685Y0056250D01*
X0136686Y0056250D01*
X0135862Y0055909D01*
X0104508Y0087263D01*
X0107022Y0087263D01*
X0109505Y0088291D01*
X0111987Y0087263D01*
X0114896Y0087263D01*
X0117583Y0088376D01*
X0119640Y0090433D01*
X0120753Y0093120D01*
X0120753Y0096029D01*
X0119725Y0098512D01*
X0120753Y0100994D01*
X0120753Y0103903D01*
X0119640Y0106591D01*
X0117583Y0108647D01*
X0114896Y0109761D01*
X0111987Y0109761D01*
X0109505Y0108732D01*
X0107022Y0109761D01*
X0104113Y0109761D01*
X0101426Y0108647D01*
X0099369Y0106591D01*
X0099337Y0106515D01*
X0098718Y0106716D01*
X0098038Y0106824D01*
X0097694Y0106824D01*
X0097694Y0102449D01*
X0097693Y0102449D01*
X0097693Y0106824D01*
X0097349Y0106824D01*
X0096669Y0106716D01*
X0096050Y0106515D01*
X0096018Y0106591D01*
X0093961Y0108647D01*
X0091274Y0109761D01*
X0088365Y0109761D01*
X0085883Y0108732D01*
X0083400Y0109761D01*
X0080491Y0109761D01*
X0077804Y0108647D01*
X0075747Y0106591D01*
X0074634Y0103903D01*
X0074634Y0100994D01*
X0074708Y0100816D01*
X0074499Y0100607D01*
X0073000Y0099108D01*
X0072189Y0097150D01*
X0072189Y0091842D01*
X0073000Y0089884D01*
X0076720Y0086163D01*
X0078219Y0084665D01*
X0080177Y0083854D01*
X0092849Y0083854D01*
X0124835Y0051868D01*
X0124677Y0051710D01*
X0124251Y0051124D01*
X0123923Y0050479D01*
X0123699Y0049791D01*
X0123586Y0049075D01*
X0123586Y0049069D01*
X0120692Y0051963D01*
X0118386Y0051963D01*
X0118386Y0046113D01*
X0118386Y0046118D02*
X0117986Y0046118D01*
X0117986Y0047716D02*
X0118386Y0047716D01*
X0118386Y0049315D02*
X0117986Y0049315D01*
X0117986Y0050913D02*
X0118386Y0050913D01*
X0121742Y0050913D02*
X0124144Y0050913D01*
X0124191Y0052512D02*
X0114297Y0052512D01*
X0112698Y0054110D02*
X0122592Y0054110D01*
X0120994Y0055709D02*
X0056198Y0055709D01*
X0056215Y0054110D02*
X0073673Y0054110D01*
X0072075Y0052512D02*
X0056091Y0052512D01*
X0056321Y0050913D02*
X0070476Y0050913D01*
X0069199Y0049315D02*
X0056091Y0049315D01*
X0056215Y0047716D02*
X0069199Y0047716D01*
X0069199Y0046118D02*
X0056198Y0046118D01*
X0055968Y0044519D02*
X0069199Y0044519D01*
X0069199Y0042921D02*
X0055738Y0042921D01*
X0055587Y0041867D02*
X0055587Y0041867D01*
X0055338Y0041322D02*
X0070067Y0041322D01*
X0071666Y0039724D02*
X0054608Y0039724D01*
X0053878Y0038125D02*
X0073264Y0038125D01*
X0082698Y0054110D02*
X0083673Y0054110D01*
X0092698Y0054110D02*
X0093673Y0054110D01*
X0102698Y0054110D02*
X0103673Y0054110D01*
X0113001Y0063701D02*
X0053878Y0063701D01*
X0054608Y0062103D02*
X0114600Y0062103D01*
X0116198Y0060504D02*
X0055338Y0060504D01*
X0055587Y0059960D02*
X0055587Y0059960D01*
X0055738Y0058906D02*
X0117797Y0058906D01*
X0119395Y0057307D02*
X0055968Y0057307D01*
X0052883Y0065300D02*
X0111403Y0065300D01*
X0109804Y0066898D02*
X0051498Y0066898D01*
X0050113Y0068497D02*
X0108206Y0068497D01*
X0106607Y0070096D02*
X0047667Y0070096D01*
X0045719Y0071347D02*
X0045719Y0071347D01*
X0044537Y0071694D02*
X0105009Y0071694D01*
X0103410Y0073293D02*
X0030343Y0073293D01*
X0030343Y0074891D02*
X0101812Y0074891D01*
X0100213Y0076490D02*
X0030343Y0076490D01*
X0030343Y0078088D02*
X0098614Y0078088D01*
X0097016Y0079687D02*
X0030343Y0079687D01*
X0030343Y0081285D02*
X0095417Y0081285D01*
X0093819Y0082884D02*
X0030343Y0082884D01*
X0030343Y0084482D02*
X0078660Y0084482D01*
X0076803Y0086081D02*
X0030343Y0086081D01*
X0030343Y0087679D02*
X0075205Y0087679D01*
X0073606Y0089278D02*
X0030343Y0089278D01*
X0030343Y0090876D02*
X0072589Y0090876D01*
X0072189Y0092475D02*
X0030343Y0092475D01*
X0030343Y0094073D02*
X0072189Y0094073D01*
X0072189Y0095672D02*
X0030343Y0095672D01*
X0030343Y0097270D02*
X0072239Y0097270D01*
X0072901Y0098869D02*
X0030343Y0098869D01*
X0030343Y0100467D02*
X0074359Y0100467D01*
X0074634Y0102066D02*
X0030343Y0102066D01*
X0030343Y0103664D02*
X0074634Y0103664D01*
X0075197Y0105263D02*
X0030343Y0105263D01*
X0030343Y0106861D02*
X0076018Y0106861D01*
X0077616Y0108460D02*
X0030343Y0108460D01*
X0030343Y0110058D02*
X0170044Y0110058D01*
X0170044Y0108460D02*
X0117771Y0108460D01*
X0119370Y0106861D02*
X0170044Y0106861D01*
X0170044Y0105263D02*
X0120190Y0105263D01*
X0120753Y0103664D02*
X0170044Y0103664D01*
X0170044Y0102066D02*
X0120753Y0102066D01*
X0120535Y0100467D02*
X0170044Y0100467D01*
X0170044Y0098869D02*
X0119873Y0098869D01*
X0120239Y0097270D02*
X0170044Y0097270D01*
X0170044Y0095672D02*
X0120753Y0095672D01*
X0120753Y0094073D02*
X0170044Y0094073D01*
X0170044Y0092475D02*
X0120486Y0092475D01*
X0119824Y0090876D02*
X0170044Y0090876D01*
X0170044Y0089278D02*
X0118485Y0089278D01*
X0115901Y0087679D02*
X0170044Y0087679D01*
X0170044Y0086081D02*
X0105691Y0086081D01*
X0107289Y0084482D02*
X0170044Y0084482D01*
X0170044Y0082884D02*
X0108888Y0082884D01*
X0110486Y0081285D02*
X0170044Y0081285D01*
X0170044Y0079687D02*
X0112085Y0079687D01*
X0113683Y0078088D02*
X0170044Y0078088D01*
X0170044Y0076490D02*
X0115282Y0076490D01*
X0116880Y0074891D02*
X0170044Y0074891D01*
X0170044Y0073293D02*
X0118479Y0073293D01*
X0120077Y0071694D02*
X0155850Y0071694D01*
X0152720Y0070096D02*
X0121676Y0070096D01*
X0123274Y0068497D02*
X0150274Y0068497D01*
X0150325Y0068556D02*
X0150325Y0068556D01*
X0150325Y0068556D01*
X0148889Y0066898D02*
X0124873Y0066898D01*
X0126471Y0065300D02*
X0147504Y0065300D01*
X0146945Y0064655D02*
X0146945Y0064655D01*
X0146509Y0063701D02*
X0128070Y0063701D01*
X0129668Y0062103D02*
X0145779Y0062103D01*
X0145049Y0060504D02*
X0131267Y0060504D01*
X0132865Y0058906D02*
X0144649Y0058906D01*
X0144801Y0059960D02*
X0144801Y0059960D01*
X0144419Y0057307D02*
X0134464Y0057307D01*
X0140992Y0055709D02*
X0144189Y0055709D01*
X0144066Y0054850D02*
X0144066Y0054850D01*
X0144172Y0054110D02*
X0143448Y0054110D01*
X0131432Y0039724D02*
X0131301Y0039724D01*
X0132515Y0038125D02*
X0113107Y0038125D01*
X0114706Y0039724D02*
X0125070Y0039724D01*
X0123936Y0041322D02*
X0122151Y0041322D01*
X0118386Y0041322D02*
X0117986Y0041322D01*
X0117986Y0042921D02*
X0118386Y0042921D01*
X0118386Y0044519D02*
X0117986Y0044519D01*
X0123340Y0049315D02*
X0123624Y0049315D01*
X0128086Y0044519D02*
X0128286Y0044519D01*
X0128286Y0042921D02*
X0128086Y0042921D01*
X0128086Y0041322D02*
X0128286Y0041322D01*
X0128286Y0039724D02*
X0128086Y0039724D01*
X0168553Y0071694D02*
X0170044Y0071694D01*
X0169735Y0071347D02*
X0169735Y0071347D01*
X0170044Y0111657D02*
X0030343Y0111657D01*
X0030343Y0113255D02*
X0170044Y0113255D01*
X0170044Y0114854D02*
X0030343Y0114854D01*
X0030343Y0116452D02*
X0170044Y0116452D01*
X0170044Y0118051D02*
X0030343Y0118051D01*
X0030343Y0119649D02*
X0170044Y0119649D01*
X0170044Y0121248D02*
X0030343Y0121248D01*
X0030343Y0122846D02*
X0170044Y0122846D01*
X0170044Y0124445D02*
X0030343Y0124445D01*
X0030343Y0126043D02*
X0170044Y0126043D01*
X0170044Y0127642D02*
X0030343Y0127642D01*
X0030343Y0129240D02*
X0170044Y0129240D01*
X0170044Y0130839D02*
X0030343Y0130839D01*
X0030343Y0132437D02*
X0170044Y0132437D01*
X0170044Y0134036D02*
X0030343Y0134036D01*
X0030343Y0135634D02*
X0170044Y0135634D01*
X0170044Y0137233D02*
X0030343Y0137233D01*
X0030343Y0138832D02*
X0170044Y0138832D01*
X0170044Y0140430D02*
X0030343Y0140430D01*
X0030343Y0142029D02*
X0170044Y0142029D01*
X0170044Y0143627D02*
X0030343Y0143627D01*
X0030343Y0145226D02*
X0170044Y0145226D01*
X0170044Y0146824D02*
X0030343Y0146824D01*
X0030343Y0148423D02*
X0170044Y0148423D01*
X0170044Y0150021D02*
X0030343Y0150021D01*
X0030343Y0151620D02*
X0170044Y0151620D01*
X0170044Y0153218D02*
X0030343Y0153218D01*
X0030343Y0154817D02*
X0170044Y0154817D01*
X0170044Y0156415D02*
X0030343Y0156415D01*
X0030343Y0158014D02*
X0170044Y0158014D01*
X0170044Y0159612D02*
X0030343Y0159612D01*
X0030343Y0161211D02*
X0170044Y0161211D01*
X0170044Y0162809D02*
X0030343Y0162809D01*
X0030343Y0164408D02*
X0170044Y0164408D01*
X0170044Y0166006D02*
X0030343Y0166006D01*
X0030343Y0167605D02*
X0170044Y0167605D01*
X0170044Y0169203D02*
X0030343Y0169203D01*
X0030343Y0170802D02*
X0170044Y0170802D01*
X0170044Y0172400D02*
X0030343Y0172400D01*
X0030343Y0173999D02*
X0170044Y0173999D01*
X0170044Y0175597D02*
X0030343Y0175597D01*
X0030343Y0177196D02*
X0170044Y0177196D01*
X0170044Y0178794D02*
X0030343Y0178794D01*
X0030343Y0180393D02*
X0170044Y0180393D01*
X0170044Y0181991D02*
X0030343Y0181991D01*
X0030343Y0183590D02*
X0170044Y0183590D01*
X0170044Y0185188D02*
X0030343Y0185188D01*
X0030343Y0186787D02*
X0170044Y0186787D01*
X0170044Y0188385D02*
X0103894Y0188385D01*
X0103085Y0188050D02*
X0105772Y0189164D01*
X0107829Y0191220D01*
X0108942Y0193908D01*
X0108942Y0196817D01*
X0107914Y0199299D01*
X0108942Y0201782D01*
X0108942Y0204691D01*
X0107829Y0207378D01*
X0105772Y0209435D01*
X0103085Y0210548D01*
X0100176Y0210548D01*
X0097489Y0209435D01*
X0095432Y0207378D01*
X0095400Y0207302D01*
X0094781Y0207503D01*
X0094101Y0207611D01*
X0093757Y0207611D01*
X0093757Y0203236D01*
X0093757Y0195362D01*
X0093757Y0190987D01*
X0094101Y0190987D01*
X0094781Y0191095D01*
X0095400Y0191296D01*
X0095432Y0191220D01*
X0097489Y0189164D01*
X0100176Y0188050D01*
X0103085Y0188050D01*
X0106593Y0189984D02*
X0170044Y0189984D01*
X0170044Y0191582D02*
X0107979Y0191582D01*
X0108641Y0193181D02*
X0170044Y0193181D01*
X0170044Y0194779D02*
X0108942Y0194779D01*
X0108942Y0196378D02*
X0170044Y0196378D01*
X0170044Y0197976D02*
X0108462Y0197976D01*
X0108028Y0199575D02*
X0170044Y0199575D01*
X0170044Y0201173D02*
X0108690Y0201173D01*
X0108942Y0202772D02*
X0170044Y0202772D01*
X0170044Y0204370D02*
X0108942Y0204370D01*
X0108413Y0205969D02*
X0170044Y0205969D01*
X0170044Y0207567D02*
X0107640Y0207567D01*
X0106041Y0209166D02*
X0170044Y0209166D01*
X0170044Y0210765D02*
X0030343Y0210765D01*
X0030343Y0212363D02*
X0170044Y0212363D01*
X0170044Y0213962D02*
X0030343Y0213962D01*
X0030343Y0215560D02*
X0170044Y0215560D01*
X0170044Y0217159D02*
X0030343Y0217159D01*
X0030343Y0218757D02*
X0170044Y0218757D01*
X0170044Y0220356D02*
X0030343Y0220356D01*
X0030343Y0221954D02*
X0170044Y0221954D01*
X0170044Y0223553D02*
X0030343Y0223553D01*
X0030343Y0225151D02*
X0031369Y0225151D01*
X0030652Y0225362D02*
X0030652Y0225362D01*
X0045002Y0225151D02*
X0155385Y0225151D01*
X0154668Y0225362D02*
X0154668Y0225362D01*
X0152508Y0226750D02*
X0047879Y0226750D01*
X0050231Y0228348D02*
X0150156Y0228348D01*
X0150325Y0228152D02*
X0150325Y0228152D01*
X0148771Y0229947D02*
X0051617Y0229947D01*
X0053002Y0231545D02*
X0147385Y0231545D01*
X0146447Y0233144D02*
X0053940Y0233144D01*
X0053442Y0232054D02*
X0053442Y0232054D01*
X0054670Y0234742D02*
X0145717Y0234742D01*
X0144987Y0236341D02*
X0055400Y0236341D01*
X0055587Y0236749D02*
X0055587Y0236749D01*
X0055758Y0237939D02*
X0144629Y0237939D01*
X0144801Y0236749D02*
X0144801Y0236749D01*
X0144400Y0239538D02*
X0055987Y0239538D01*
X0056217Y0241136D02*
X0144170Y0241136D01*
X0144066Y0241858D02*
X0144066Y0241858D01*
X0144192Y0242735D02*
X0056195Y0242735D01*
X0056111Y0244333D02*
X0144276Y0244333D01*
X0144066Y0245795D02*
X0144066Y0245795D01*
X0144086Y0245932D02*
X0056301Y0245932D01*
X0056321Y0245795D02*
X0056321Y0245795D01*
X0056072Y0247530D02*
X0144315Y0247530D01*
X0144153Y0249129D02*
X0107523Y0249129D01*
X0109561Y0250727D02*
X0144209Y0250727D01*
X0144066Y0249732D02*
X0144066Y0249732D01*
X0144439Y0252326D02*
X0114880Y0252326D01*
X0116041Y0253924D02*
X0144669Y0253924D01*
X0145112Y0255523D02*
X0116379Y0255523D01*
X0116122Y0257121D02*
X0145842Y0257121D01*
X0146572Y0258720D02*
X0115109Y0258720D01*
X0112005Y0258720D02*
X0112005Y0258720D01*
X0112005Y0257121D02*
X0112005Y0257121D01*
X0112005Y0255638D02*
X0112005Y0251263D01*
X0112005Y0255638D01*
X0112005Y0255638D01*
X0112005Y0255523D02*
X0112005Y0255523D01*
X0112005Y0253924D02*
X0112005Y0253924D01*
X0112005Y0252326D02*
X0112005Y0252326D01*
X0109790Y0260318D02*
X0147622Y0260318D01*
X0146945Y0259537D02*
X0146945Y0259537D01*
X0169018Y0225151D02*
X0170044Y0225151D01*
X0100738Y0249129D02*
X0099649Y0249129D01*
X0083043Y0249129D02*
X0056234Y0249129D01*
X0056178Y0250727D02*
X0081648Y0250727D01*
X0081071Y0252326D02*
X0055948Y0252326D01*
X0055718Y0253924D02*
X0081071Y0253924D01*
X0081071Y0255523D02*
X0055275Y0255523D01*
X0055587Y0254842D02*
X0055587Y0254842D01*
X0054545Y0257121D02*
X0081071Y0257121D01*
X0081071Y0258720D02*
X0053815Y0258720D01*
X0053442Y0259537D02*
X0053442Y0259537D01*
X0052765Y0260318D02*
X0081553Y0260318D01*
X0097220Y0209166D02*
X0030343Y0209166D01*
X0030343Y0207567D02*
X0093138Y0207567D01*
X0093412Y0207611D02*
X0092732Y0207503D01*
X0092077Y0207291D01*
X0091464Y0206978D01*
X0090907Y0206573D01*
X0090420Y0206086D01*
X0090015Y0205529D01*
X0089702Y0204916D01*
X0089489Y0204261D01*
X0089382Y0203581D01*
X0089382Y0203236D01*
X0089382Y0202892D01*
X0089489Y0202212D01*
X0089702Y0201557D01*
X0090015Y0200943D01*
X0090420Y0200386D01*
X0090907Y0199899D01*
X0091464Y0199495D01*
X0091847Y0199299D01*
X0091464Y0199104D01*
X0090907Y0198699D01*
X0090420Y0198212D01*
X0090015Y0197655D01*
X0089702Y0197042D01*
X0089489Y0196387D01*
X0089382Y0195707D01*
X0089382Y0195362D01*
X0089382Y0195018D01*
X0089489Y0194338D01*
X0089702Y0193683D01*
X0090015Y0193069D01*
X0090420Y0192512D01*
X0090907Y0192025D01*
X0091464Y0191621D01*
X0092077Y0191308D01*
X0092732Y0191095D01*
X0093412Y0190987D01*
X0093756Y0190987D01*
X0093756Y0195362D01*
X0089382Y0195362D01*
X0093756Y0195362D01*
X0093756Y0195362D01*
X0093757Y0195362D01*
X0093756Y0195362D01*
X0093756Y0198861D01*
X0093756Y0203236D01*
X0089382Y0203236D01*
X0093756Y0203236D01*
X0093756Y0203236D01*
X0093757Y0203236D01*
X0093756Y0203236D01*
X0093756Y0207611D01*
X0093412Y0207611D01*
X0093756Y0207567D02*
X0093757Y0207567D01*
X0094376Y0207567D02*
X0095621Y0207567D01*
X0093756Y0205969D02*
X0093757Y0205969D01*
X0093756Y0204370D02*
X0093757Y0204370D01*
X0093756Y0202772D02*
X0093757Y0202772D01*
X0093756Y0201173D02*
X0093757Y0201173D01*
X0093756Y0199575D02*
X0093757Y0199575D01*
X0093756Y0197976D02*
X0093757Y0197976D01*
X0093756Y0196378D02*
X0093757Y0196378D01*
X0093756Y0194779D02*
X0093757Y0194779D01*
X0093756Y0193181D02*
X0093757Y0193181D01*
X0093756Y0191582D02*
X0093757Y0191582D01*
X0091539Y0191582D02*
X0030343Y0191582D01*
X0030343Y0189984D02*
X0096668Y0189984D01*
X0099367Y0188385D02*
X0030343Y0188385D01*
X0030343Y0193181D02*
X0089958Y0193181D01*
X0089420Y0194779D02*
X0030343Y0194779D01*
X0030343Y0196378D02*
X0089488Y0196378D01*
X0090248Y0197976D02*
X0030343Y0197976D01*
X0030343Y0199575D02*
X0091353Y0199575D01*
X0089898Y0201173D02*
X0030343Y0201173D01*
X0030343Y0202772D02*
X0089401Y0202772D01*
X0089525Y0204370D02*
X0030343Y0204370D01*
X0030343Y0205969D02*
X0090334Y0205969D01*
X0094149Y0108460D02*
X0101238Y0108460D01*
X0099640Y0106861D02*
X0095748Y0106861D01*
X0097693Y0105263D02*
X0097694Y0105263D01*
X0097693Y0103664D02*
X0097694Y0103664D01*
X0108027Y0087679D02*
X0110982Y0087679D01*
X0053442Y0037172D02*
X0053442Y0037172D01*
X0031834Y0071694D02*
X0030343Y0071694D01*
X0030652Y0071347D02*
X0030652Y0071347D01*
D17*
X0077516Y0092902D02*
X0081237Y0089181D01*
X0095056Y0089181D01*
X0138107Y0046130D01*
X0138186Y0045913D01*
X0081768Y0100343D02*
X0077516Y0096091D01*
X0077516Y0092902D01*
X0081768Y0100343D02*
X0081768Y0101937D01*
X0081946Y0102449D01*
M02*
