G75*
%MOIN*%
%OFA0B0*%
%FSLAX25Y25*%
%IPPOS*%
%LPD*%
%AMOC8*
5,1,8,0,0,1.08239X$1,22.5*
%
%ADD10C,0.02400*%
%ADD11C,0.00800*%
%ADD12C,0.01600*%
%ADD13C,0.01200*%
%ADD14C,0.00500*%
%ADD15C,0.01000*%
%ADD16C,0.00400*%
%ADD17C,0.00600*%
D10*
X0024406Y0031228D02*
X0175981Y0031228D01*
X0175981Y0267449D01*
X0024406Y0267449D01*
X0024406Y0031228D01*
D11*
X0058246Y0139089D02*
X0057279Y0140056D01*
X0058246Y0139089D02*
X0060181Y0139089D01*
X0061149Y0140056D01*
X0061149Y0141024D01*
X0060181Y0141991D01*
X0058246Y0141991D01*
X0057279Y0142959D01*
X0057279Y0143926D01*
X0058246Y0144894D01*
X0060181Y0144894D01*
X0061149Y0143926D01*
X0063356Y0143926D02*
X0064323Y0144894D01*
X0066258Y0144894D01*
X0067226Y0143926D01*
X0067226Y0142959D01*
X0066258Y0141991D01*
X0067226Y0141024D01*
X0067226Y0140056D01*
X0066258Y0139089D01*
X0064323Y0139089D01*
X0063356Y0140056D01*
X0065291Y0141991D02*
X0066258Y0141991D01*
X0069433Y0140056D02*
X0070400Y0139089D01*
X0072335Y0139089D01*
X0073303Y0140056D01*
X0073303Y0143926D01*
X0069433Y0140056D01*
X0069433Y0143926D01*
X0070400Y0144894D01*
X0072335Y0144894D01*
X0073303Y0143926D01*
X0075510Y0143926D02*
X0075510Y0140056D01*
X0079380Y0143926D01*
X0079380Y0140056D01*
X0078413Y0139089D01*
X0076478Y0139089D01*
X0075510Y0140056D01*
X0075510Y0143926D02*
X0076478Y0144894D01*
X0078413Y0144894D01*
X0079380Y0143926D01*
X0087665Y0143926D02*
X0087665Y0140056D01*
X0088632Y0139089D01*
X0090567Y0139089D01*
X0091535Y0140056D01*
X0093742Y0140056D02*
X0094709Y0139089D01*
X0096644Y0139089D01*
X0097612Y0140056D01*
X0097612Y0143926D01*
X0096644Y0144894D01*
X0094709Y0144894D01*
X0093742Y0143926D01*
X0093742Y0140056D01*
X0091535Y0143926D02*
X0090567Y0144894D01*
X0088632Y0144894D01*
X0087665Y0143926D01*
X0099819Y0143926D02*
X0100786Y0144894D01*
X0102721Y0144894D01*
X0103689Y0143926D01*
X0103689Y0142959D01*
X0099819Y0139089D01*
X0103689Y0139089D01*
X0111973Y0140056D02*
X0112941Y0139089D01*
X0114876Y0139089D01*
X0115843Y0140056D01*
X0115843Y0141024D01*
X0114876Y0141991D01*
X0112941Y0141991D01*
X0111973Y0142959D01*
X0111973Y0143926D01*
X0112941Y0144894D01*
X0114876Y0144894D01*
X0115843Y0143926D01*
X0118051Y0141991D02*
X0119018Y0142959D01*
X0120953Y0142959D01*
X0121920Y0141991D01*
X0121920Y0141024D01*
X0118051Y0141024D01*
X0118051Y0141991D02*
X0118051Y0140056D01*
X0119018Y0139089D01*
X0120953Y0139089D01*
X0124128Y0139089D02*
X0124128Y0142959D01*
X0127030Y0142959D01*
X0127998Y0141991D01*
X0127998Y0139089D01*
X0130205Y0139089D02*
X0133107Y0139089D01*
X0134075Y0140056D01*
X0133107Y0141024D01*
X0131172Y0141024D01*
X0130205Y0141991D01*
X0131172Y0142959D01*
X0134075Y0142959D01*
X0136282Y0141991D02*
X0136282Y0140056D01*
X0137250Y0139089D01*
X0139185Y0139089D01*
X0140152Y0140056D01*
X0140152Y0141991D01*
X0139185Y0142959D01*
X0137250Y0142959D01*
X0136282Y0141991D01*
X0142359Y0141024D02*
X0144294Y0142959D01*
X0145262Y0142959D01*
X0142359Y0142959D02*
X0142359Y0139089D01*
X0166694Y0107185D02*
X0167661Y0107185D01*
X0168629Y0106217D01*
X0169596Y0107185D01*
X0170564Y0107185D01*
X0171531Y0106217D01*
X0171531Y0104282D01*
X0170564Y0103315D01*
X0170564Y0101108D02*
X0166694Y0101108D01*
X0170564Y0097238D01*
X0171531Y0098205D01*
X0171531Y0100140D01*
X0170564Y0101108D01*
X0166694Y0101108D02*
X0165726Y0100140D01*
X0165726Y0098205D01*
X0166694Y0097238D01*
X0170564Y0097238D01*
X0168629Y0095030D02*
X0168629Y0091161D01*
X0165726Y0094063D01*
X0171531Y0094063D01*
X0171531Y0088953D02*
X0171531Y0085083D01*
X0167661Y0088953D01*
X0166694Y0088953D01*
X0165726Y0087986D01*
X0165726Y0086051D01*
X0166694Y0085083D01*
X0166694Y0082876D02*
X0170564Y0079006D01*
X0171531Y0079974D01*
X0171531Y0081909D01*
X0170564Y0082876D01*
X0166694Y0082876D01*
X0165726Y0081909D01*
X0165726Y0079974D01*
X0166694Y0079006D01*
X0170564Y0079006D01*
X0171531Y0076799D02*
X0171531Y0072929D01*
X0167661Y0076799D01*
X0166694Y0076799D01*
X0165726Y0075831D01*
X0165726Y0073896D01*
X0166694Y0072929D01*
X0166694Y0103315D02*
X0165726Y0104282D01*
X0165726Y0106217D01*
X0166694Y0107185D01*
X0168629Y0106217D02*
X0168629Y0105250D01*
X0165627Y0214719D02*
X0161757Y0214719D01*
X0161757Y0220524D01*
X0165627Y0220524D01*
X0163692Y0217621D02*
X0161757Y0217621D01*
X0159550Y0216654D02*
X0159550Y0220524D01*
X0155680Y0220524D02*
X0155680Y0216654D01*
X0157615Y0214719D01*
X0159550Y0216654D01*
X0153473Y0215686D02*
X0153473Y0219556D01*
X0152505Y0220524D01*
X0150570Y0220524D01*
X0149603Y0219556D01*
X0149603Y0215686D01*
X0150570Y0214719D01*
X0152505Y0214719D01*
X0153473Y0215686D01*
X0147396Y0214719D02*
X0145461Y0216654D01*
X0146428Y0216654D02*
X0143526Y0216654D01*
X0143526Y0214719D02*
X0143526Y0220524D01*
X0146428Y0220524D01*
X0147396Y0219556D01*
X0147396Y0217621D01*
X0146428Y0216654D01*
X0141319Y0215686D02*
X0141319Y0217621D01*
X0139384Y0217621D01*
X0141319Y0215686D02*
X0140351Y0214719D01*
X0138416Y0214719D01*
X0137449Y0215686D01*
X0137449Y0219556D01*
X0138416Y0220524D01*
X0140351Y0220524D01*
X0141319Y0219556D01*
X0135241Y0217621D02*
X0135241Y0215686D01*
X0134274Y0214719D01*
X0132339Y0214719D01*
X0131371Y0215686D01*
X0131371Y0217621D01*
X0132339Y0218589D01*
X0134274Y0218589D01*
X0135241Y0217621D01*
X0129255Y0218589D02*
X0127320Y0218589D01*
X0128287Y0219556D02*
X0128287Y0215686D01*
X0129255Y0214719D01*
X0125113Y0214719D02*
X0121243Y0214719D01*
X0125113Y0218589D01*
X0125113Y0219556D01*
X0124145Y0220524D01*
X0122210Y0220524D01*
X0121243Y0219556D01*
X0119035Y0219556D02*
X0119035Y0215686D01*
X0118068Y0214719D01*
X0116133Y0214719D01*
X0115166Y0215686D01*
X0115166Y0219556D01*
X0116133Y0220524D01*
X0118068Y0220524D01*
X0119035Y0219556D01*
X0112958Y0219556D02*
X0111991Y0220524D01*
X0110056Y0220524D01*
X0109088Y0219556D01*
X0109088Y0215686D01*
X0110056Y0214719D01*
X0111991Y0214719D01*
X0112958Y0215686D01*
X0106881Y0215686D02*
X0105914Y0214719D01*
X0103979Y0214719D01*
X0103011Y0215686D01*
X0106881Y0219556D01*
X0106881Y0215686D01*
X0103011Y0215686D02*
X0103011Y0219556D01*
X0103979Y0220524D01*
X0105914Y0220524D01*
X0106881Y0219556D01*
X0100804Y0219556D02*
X0100804Y0215686D01*
X0099836Y0214719D01*
X0097901Y0214719D01*
X0096934Y0215686D01*
X0100804Y0219556D01*
X0099836Y0220524D01*
X0097901Y0220524D01*
X0096934Y0219556D01*
X0096934Y0215686D01*
X0094727Y0215686D02*
X0093759Y0214719D01*
X0091824Y0214719D01*
X0090857Y0215686D01*
X0088650Y0215686D02*
X0087682Y0214719D01*
X0085747Y0214719D01*
X0084780Y0215686D01*
X0085747Y0217621D02*
X0084780Y0218589D01*
X0084780Y0219556D01*
X0085747Y0220524D01*
X0087682Y0220524D01*
X0088650Y0219556D01*
X0087682Y0217621D02*
X0088650Y0216654D01*
X0088650Y0215686D01*
X0087682Y0217621D02*
X0085747Y0217621D01*
X0090857Y0219556D02*
X0091824Y0220524D01*
X0093759Y0220524D01*
X0094727Y0219556D01*
X0094727Y0218589D01*
X0093759Y0217621D01*
X0094727Y0216654D01*
X0094727Y0215686D01*
X0093759Y0217621D02*
X0092792Y0217621D01*
X0082572Y0217621D02*
X0078702Y0217621D01*
X0076495Y0214719D02*
X0076495Y0220524D01*
X0074560Y0218589D01*
X0072625Y0220524D01*
X0072625Y0214719D01*
X0070418Y0215686D02*
X0070418Y0220524D01*
X0066548Y0220524D02*
X0066548Y0215686D01*
X0067515Y0214719D01*
X0069450Y0214719D01*
X0070418Y0215686D01*
X0064341Y0214719D02*
X0062406Y0216654D01*
X0063373Y0216654D02*
X0060471Y0216654D01*
X0060471Y0214719D02*
X0060471Y0220524D01*
X0063373Y0220524D01*
X0064341Y0219556D01*
X0064341Y0217621D01*
X0063373Y0216654D01*
X0058264Y0217621D02*
X0054394Y0217621D01*
X0054394Y0218589D02*
X0056329Y0220524D01*
X0058264Y0218589D01*
X0058264Y0214719D01*
X0054394Y0214719D02*
X0054394Y0218589D01*
X0052186Y0219556D02*
X0051219Y0220524D01*
X0049284Y0220524D01*
X0048316Y0219556D01*
X0048316Y0218589D01*
X0049284Y0217621D01*
X0051219Y0217621D01*
X0052186Y0216654D01*
X0052186Y0215686D01*
X0051219Y0214719D01*
X0049284Y0214719D01*
X0048316Y0215686D01*
X0046109Y0214719D02*
X0046109Y0218589D01*
X0044174Y0220524D01*
X0042239Y0218589D01*
X0042239Y0214719D01*
X0042239Y0217621D02*
X0046109Y0217621D01*
D12*
X0054780Y0210323D02*
X0054780Y0203236D01*
X0032733Y0174890D01*
X0032733Y0080402D01*
X0162654Y0080402D01*
X0162654Y0210323D01*
X0055568Y0210323D01*
X0128186Y0058413D02*
X0138186Y0058413D01*
X0138186Y0053413D01*
X0128186Y0053413D02*
X0128186Y0058413D01*
D13*
X0112520Y0107508D02*
X0112522Y0107571D01*
X0112528Y0107633D01*
X0112538Y0107695D01*
X0112551Y0107757D01*
X0112569Y0107817D01*
X0112590Y0107876D01*
X0112615Y0107934D01*
X0112644Y0107990D01*
X0112676Y0108044D01*
X0112711Y0108096D01*
X0112749Y0108145D01*
X0112791Y0108193D01*
X0112835Y0108237D01*
X0112883Y0108279D01*
X0112932Y0108317D01*
X0112984Y0108352D01*
X0113038Y0108384D01*
X0113094Y0108413D01*
X0113152Y0108438D01*
X0113211Y0108459D01*
X0113271Y0108477D01*
X0113333Y0108490D01*
X0113395Y0108500D01*
X0113457Y0108506D01*
X0113520Y0108508D01*
X0113583Y0108506D01*
X0113645Y0108500D01*
X0113707Y0108490D01*
X0113769Y0108477D01*
X0113829Y0108459D01*
X0113888Y0108438D01*
X0113946Y0108413D01*
X0114002Y0108384D01*
X0114056Y0108352D01*
X0114108Y0108317D01*
X0114157Y0108279D01*
X0114205Y0108237D01*
X0114249Y0108193D01*
X0114291Y0108145D01*
X0114329Y0108096D01*
X0114364Y0108044D01*
X0114396Y0107990D01*
X0114425Y0107934D01*
X0114450Y0107876D01*
X0114471Y0107817D01*
X0114489Y0107757D01*
X0114502Y0107695D01*
X0114512Y0107633D01*
X0114518Y0107571D01*
X0114520Y0107508D01*
X0114518Y0107445D01*
X0114512Y0107383D01*
X0114502Y0107321D01*
X0114489Y0107259D01*
X0114471Y0107199D01*
X0114450Y0107140D01*
X0114425Y0107082D01*
X0114396Y0107026D01*
X0114364Y0106972D01*
X0114329Y0106920D01*
X0114291Y0106871D01*
X0114249Y0106823D01*
X0114205Y0106779D01*
X0114157Y0106737D01*
X0114108Y0106699D01*
X0114056Y0106664D01*
X0114002Y0106632D01*
X0113946Y0106603D01*
X0113888Y0106578D01*
X0113829Y0106557D01*
X0113769Y0106539D01*
X0113707Y0106526D01*
X0113645Y0106516D01*
X0113583Y0106510D01*
X0113520Y0106508D01*
X0113457Y0106510D01*
X0113395Y0106516D01*
X0113333Y0106526D01*
X0113271Y0106539D01*
X0113211Y0106557D01*
X0113152Y0106578D01*
X0113094Y0106603D01*
X0113038Y0106632D01*
X0112984Y0106664D01*
X0112932Y0106699D01*
X0112883Y0106737D01*
X0112835Y0106779D01*
X0112791Y0106823D01*
X0112749Y0106871D01*
X0112711Y0106920D01*
X0112676Y0106972D01*
X0112644Y0107026D01*
X0112615Y0107082D01*
X0112590Y0107140D01*
X0112569Y0107199D01*
X0112551Y0107259D01*
X0112538Y0107321D01*
X0112528Y0107383D01*
X0112522Y0107445D01*
X0112520Y0107508D01*
X0105946Y0203295D02*
X0105948Y0203358D01*
X0105954Y0203420D01*
X0105964Y0203482D01*
X0105977Y0203544D01*
X0105995Y0203604D01*
X0106016Y0203663D01*
X0106041Y0203721D01*
X0106070Y0203777D01*
X0106102Y0203831D01*
X0106137Y0203883D01*
X0106175Y0203932D01*
X0106217Y0203980D01*
X0106261Y0204024D01*
X0106309Y0204066D01*
X0106358Y0204104D01*
X0106410Y0204139D01*
X0106464Y0204171D01*
X0106520Y0204200D01*
X0106578Y0204225D01*
X0106637Y0204246D01*
X0106697Y0204264D01*
X0106759Y0204277D01*
X0106821Y0204287D01*
X0106883Y0204293D01*
X0106946Y0204295D01*
X0107009Y0204293D01*
X0107071Y0204287D01*
X0107133Y0204277D01*
X0107195Y0204264D01*
X0107255Y0204246D01*
X0107314Y0204225D01*
X0107372Y0204200D01*
X0107428Y0204171D01*
X0107482Y0204139D01*
X0107534Y0204104D01*
X0107583Y0204066D01*
X0107631Y0204024D01*
X0107675Y0203980D01*
X0107717Y0203932D01*
X0107755Y0203883D01*
X0107790Y0203831D01*
X0107822Y0203777D01*
X0107851Y0203721D01*
X0107876Y0203663D01*
X0107897Y0203604D01*
X0107915Y0203544D01*
X0107928Y0203482D01*
X0107938Y0203420D01*
X0107944Y0203358D01*
X0107946Y0203295D01*
X0107944Y0203232D01*
X0107938Y0203170D01*
X0107928Y0203108D01*
X0107915Y0203046D01*
X0107897Y0202986D01*
X0107876Y0202927D01*
X0107851Y0202869D01*
X0107822Y0202813D01*
X0107790Y0202759D01*
X0107755Y0202707D01*
X0107717Y0202658D01*
X0107675Y0202610D01*
X0107631Y0202566D01*
X0107583Y0202524D01*
X0107534Y0202486D01*
X0107482Y0202451D01*
X0107428Y0202419D01*
X0107372Y0202390D01*
X0107314Y0202365D01*
X0107255Y0202344D01*
X0107195Y0202326D01*
X0107133Y0202313D01*
X0107071Y0202303D01*
X0107009Y0202297D01*
X0106946Y0202295D01*
X0106883Y0202297D01*
X0106821Y0202303D01*
X0106759Y0202313D01*
X0106697Y0202326D01*
X0106637Y0202344D01*
X0106578Y0202365D01*
X0106520Y0202390D01*
X0106464Y0202419D01*
X0106410Y0202451D01*
X0106358Y0202486D01*
X0106309Y0202524D01*
X0106261Y0202566D01*
X0106217Y0202610D01*
X0106175Y0202658D01*
X0106137Y0202707D01*
X0106102Y0202759D01*
X0106070Y0202813D01*
X0106041Y0202869D01*
X0106016Y0202927D01*
X0105995Y0202986D01*
X0105977Y0203046D01*
X0105964Y0203108D01*
X0105954Y0203170D01*
X0105948Y0203232D01*
X0105946Y0203295D01*
D14*
X0080509Y0251701D02*
X0080509Y0259575D01*
X0085932Y0072582D02*
X0085932Y0069579D01*
X0085932Y0071080D02*
X0090436Y0071080D01*
X0090436Y0067978D02*
X0090436Y0064975D01*
X0085932Y0064975D01*
X0085932Y0067978D01*
X0088184Y0066476D02*
X0088184Y0064975D01*
X0088934Y0063374D02*
X0088184Y0062623D01*
X0088184Y0061122D01*
X0087433Y0060371D01*
X0086682Y0060371D01*
X0085932Y0061122D01*
X0085932Y0062623D01*
X0086682Y0063374D01*
X0088934Y0063374D02*
X0089685Y0063374D01*
X0090436Y0062623D01*
X0090436Y0061122D01*
X0089685Y0060371D01*
X0090436Y0058770D02*
X0090436Y0055767D01*
X0085932Y0055767D01*
X0085932Y0058770D01*
X0088184Y0057269D02*
X0088184Y0055767D01*
X0088184Y0054166D02*
X0088934Y0053415D01*
X0088934Y0051163D01*
X0088934Y0052665D02*
X0090436Y0054166D01*
X0088184Y0054166D02*
X0086682Y0054166D01*
X0085932Y0053415D01*
X0085932Y0051163D01*
X0090436Y0051163D01*
X0095932Y0052665D02*
X0097433Y0054166D01*
X0100436Y0054166D01*
X0099685Y0055767D02*
X0100436Y0056518D01*
X0100436Y0058019D01*
X0099685Y0058770D01*
X0096682Y0058770D01*
X0095932Y0058019D01*
X0095932Y0056518D01*
X0096682Y0055767D01*
X0099685Y0055767D01*
X0098184Y0054166D02*
X0098184Y0051163D01*
X0097433Y0051163D02*
X0095932Y0052665D01*
X0097433Y0051163D02*
X0100436Y0051163D01*
X0106682Y0052665D02*
X0109685Y0052665D01*
X0108184Y0054166D02*
X0108184Y0051163D01*
X0108934Y0055767D02*
X0105932Y0055767D01*
X0108934Y0055767D02*
X0110436Y0057269D01*
X0108934Y0058770D01*
X0105932Y0058770D01*
X0100436Y0061122D02*
X0100436Y0062623D01*
X0099685Y0063374D01*
X0095932Y0063374D01*
X0095932Y0064975D02*
X0095932Y0067978D01*
X0095932Y0066476D02*
X0100436Y0066476D01*
X0100436Y0061122D02*
X0099685Y0060371D01*
X0095932Y0060371D01*
X0080436Y0060371D02*
X0080436Y0062623D01*
X0079685Y0063374D01*
X0076682Y0063374D01*
X0075932Y0062623D01*
X0075932Y0060371D01*
X0080436Y0060371D01*
X0079685Y0058770D02*
X0080436Y0058019D01*
X0080436Y0056518D01*
X0079685Y0055767D01*
X0076682Y0055767D01*
X0075932Y0056518D01*
X0075932Y0058019D01*
X0076682Y0058770D01*
X0077433Y0054166D02*
X0075932Y0052665D01*
X0077433Y0051163D01*
X0080436Y0051163D01*
X0078184Y0051163D02*
X0078184Y0054166D01*
X0077433Y0054166D02*
X0080436Y0054166D01*
X0080436Y0064975D02*
X0075932Y0064975D01*
X0080436Y0064975D02*
X0080436Y0067978D01*
X0115932Y0062623D02*
X0115932Y0060371D01*
X0120436Y0060371D01*
X0120436Y0062623D01*
X0119685Y0063374D01*
X0116682Y0063374D01*
X0115932Y0062623D01*
X0115932Y0058770D02*
X0120436Y0058770D01*
X0115932Y0055767D01*
X0120436Y0055767D01*
X0119685Y0054166D02*
X0118184Y0054166D01*
X0118184Y0052665D01*
X0119685Y0054166D02*
X0120436Y0053415D01*
X0120436Y0051914D01*
X0119685Y0051163D01*
X0116682Y0051163D01*
X0115932Y0051914D01*
X0115932Y0053415D01*
X0116682Y0054166D01*
X0130020Y0059663D02*
X0130020Y0064167D01*
X0131521Y0062666D01*
X0133023Y0064167D01*
X0133023Y0059663D01*
X0134624Y0060414D02*
X0134624Y0063417D01*
X0135375Y0064167D01*
X0136876Y0064167D01*
X0137626Y0063417D01*
X0139228Y0064167D02*
X0141480Y0064167D01*
X0142230Y0063417D01*
X0142230Y0060414D01*
X0141480Y0059663D01*
X0139228Y0059663D01*
X0139228Y0064167D01*
X0137626Y0060414D02*
X0136876Y0059663D01*
X0135375Y0059663D01*
X0134624Y0060414D01*
X0143832Y0059663D02*
X0146834Y0059663D01*
X0143832Y0059663D02*
X0143832Y0064167D01*
D15*
X0119879Y0244614D02*
X0112792Y0244614D01*
X0112792Y0246976D01*
X0087595Y0246976D01*
X0087595Y0244614D01*
X0080509Y0244614D01*
X0080509Y0246976D01*
X0087595Y0246976D01*
X0080509Y0246976D02*
X0080509Y0264299D01*
X0119879Y0264299D01*
X0119879Y0246976D01*
X0119879Y0244614D01*
X0119879Y0246976D02*
X0112792Y0246976D01*
X0119879Y0249732D02*
X0119879Y0261543D01*
D16*
X0113247Y0237444D02*
X0112213Y0237444D01*
X0111696Y0236927D01*
X0111696Y0234859D01*
X0112213Y0234342D01*
X0113247Y0234342D01*
X0113764Y0234859D01*
X0113764Y0236927D02*
X0113247Y0237444D01*
X0110541Y0236927D02*
X0110024Y0237444D01*
X0108990Y0237444D01*
X0108473Y0236927D01*
X0107359Y0237444D02*
X0106325Y0237444D01*
X0106842Y0237444D02*
X0106842Y0234342D01*
X0106325Y0234342D02*
X0107359Y0234342D01*
X0108473Y0234342D02*
X0110541Y0236410D01*
X0110541Y0236927D01*
X0110541Y0234342D02*
X0108473Y0234342D01*
X0105170Y0233825D02*
X0103102Y0233825D01*
X0101947Y0234342D02*
X0099879Y0234342D01*
X0099879Y0237444D01*
X0101947Y0237444D01*
X0100913Y0235893D02*
X0099879Y0235893D01*
X0098725Y0235376D02*
X0098725Y0237444D01*
X0098725Y0235376D02*
X0097691Y0234342D01*
X0096656Y0235376D01*
X0096656Y0237444D01*
X0095502Y0236927D02*
X0094985Y0237444D01*
X0093951Y0237444D01*
X0093434Y0236927D01*
X0093434Y0234859D01*
X0093951Y0234342D01*
X0094985Y0234342D01*
X0095502Y0234859D01*
X0095502Y0236927D01*
X0092279Y0236927D02*
X0092279Y0235893D01*
X0091762Y0235376D01*
X0090211Y0235376D01*
X0091245Y0235376D02*
X0092279Y0234342D01*
X0090211Y0234342D02*
X0090211Y0237444D01*
X0091762Y0237444D01*
X0092279Y0236927D01*
X0089056Y0236927D02*
X0088539Y0237444D01*
X0087505Y0237444D01*
X0086988Y0236927D01*
X0086988Y0234859D01*
X0087505Y0234342D01*
X0088539Y0234342D01*
X0089056Y0234859D01*
X0089056Y0235893D01*
X0088022Y0235893D01*
D17*
X0124186Y0050913D02*
X0123186Y0049913D01*
X0123186Y0041913D01*
X0124186Y0040913D01*
X0132186Y0040913D01*
X0133186Y0041913D01*
X0134186Y0040913D01*
X0142186Y0040913D01*
X0143186Y0041913D01*
X0143186Y0049913D01*
X0142186Y0050913D01*
X0134186Y0050913D01*
X0133186Y0049913D01*
X0132186Y0050913D01*
X0124186Y0050913D01*
X0123186Y0046913D02*
X0122686Y0046913D01*
X0123186Y0046913D02*
X0123186Y0044913D01*
X0122686Y0044913D01*
X0113686Y0044913D02*
X0113186Y0044913D01*
X0112686Y0044913D01*
X0113186Y0044913D02*
X0113186Y0046913D01*
X0112686Y0046913D01*
X0113186Y0046913D02*
X0113686Y0046913D01*
X0113186Y0046913D02*
X0113186Y0044913D01*
X0103686Y0044913D02*
X0103186Y0044913D01*
X0103186Y0046913D01*
X0103686Y0046913D01*
X0103186Y0046913D02*
X0102686Y0046913D01*
X0103186Y0046913D02*
X0103186Y0044913D01*
X0102686Y0044913D01*
X0093686Y0044913D02*
X0093186Y0044913D01*
X0093186Y0046913D01*
X0093686Y0046913D01*
X0093186Y0046913D02*
X0092686Y0046913D01*
X0093186Y0046913D02*
X0093186Y0044913D01*
X0092686Y0044913D01*
X0083686Y0044913D02*
X0083186Y0044913D01*
X0082686Y0044913D01*
X0083186Y0044913D02*
X0083186Y0046913D01*
X0082686Y0046913D01*
X0083186Y0046913D02*
X0083186Y0044913D01*
X0083186Y0046913D02*
X0083686Y0046913D01*
X0073686Y0046913D02*
X0073186Y0046913D01*
X0073186Y0044913D01*
X0073686Y0044913D01*
M02*
